<svg width="441" height="408" viewBox="0 0 441 408" fill="none" xmlns="http://www.w3.org/2000/svg">
<path d="M333.755 94.0764C308.555 83.6764 292.255 99.7431 287.255 109.076L241.755 78.5764C232.155 71.7764 221.755 72.0764 217.755 73.0764L153.755 80.0764C138.955 81.6764 137.588 95.0764 138.755 101.576C140.355 113.976 152.755 116.41 158.755 116.076L221.255 109.076L243.255 124.576C232.421 123.576 207.655 121.076 195.255 119.076C182.855 117.076 173.755 119.91 170.755 121.576L112.755 148.576C107.588 151.91 98.8547 161.276 105.255 172.076C111.655 182.876 121.921 183.243 126.255 182.076L187.255 153.576L214.755 158.576L176.755 204.576C166.755 217.376 166.255 227.243 167.255 230.576C168.055 248.576 185.921 262.076 194.755 266.576L218.255 279.076C198.755 290.076 157.655 313.376 149.255 318.576C140.855 323.776 140.255 334.076 144.255 341.576C151.455 352.776 163.921 352.076 168.755 349.576L264.755 294.576C282.755 280.576 272.255 267.076 264.755 262.076L244.755 250.576L301.755 248.576L348.255 291.576C359.855 303.576 372.421 298.576 377.255 294.576C385.655 284.976 380.755 273.243 377.255 268.576L326.255 220.576C317.055 211.376 306.088 210.076 301.755 210.576L259.255 213.076L291.755 173.576C297.755 166.376 300.921 159.243 301.755 156.576C329.355 170.976 346.588 150.576 351.755 138.576C360.155 114.976 343.255 99.0764 333.755 94.0764Z" fill="#BABABA"/>
<path d="M360 93.5382C334.8 83.1382 318.5 99.2049 313.5 108.538L268 78.0382C258.4 71.2382 248 71.5382 244 72.5382L180 79.5382C165.2 81.1382 163.833 94.5382 165 101.038C166.6 113.438 179 115.872 185 115.538L247.5 108.538L269.5 124.038C258.667 123.038 233.9 120.538 221.5 118.538C209.1 116.538 200 119.372 197 121.038L139 148.038C133.833 151.372 125.1 160.738 131.5 171.538C137.9 182.338 148.167 182.705 152.5 181.538L213.5 153.038L241 158.038L203 204.038C193 216.838 192.5 226.705 193.5 230.038C194.3 248.038 212.167 261.538 221 266.038L244.5 278.538C225 289.538 183.9 312.838 175.5 318.038C167.1 323.238 166.5 333.538 170.5 341.038C177.7 352.238 190.167 351.538 195 349.038L291 294.038C309 280.038 298.5 266.538 291 261.538L271 250.038L328 248.038L374.5 291.038C386.1 303.038 398.667 298.038 403.5 294.038C411.9 284.438 407 272.705 403.5 268.038L352.5 220.038C343.3 210.838 332.333 209.538 328 210.038L285.5 212.538L318 173.038C324 165.838 327.167 158.705 328 156.038C355.6 170.438 372.833 150.038 378 138.038C386.4 114.438 369.5 98.5382 360 93.5382Z" fill="black"/>
<rect x="72" y="153.538" width="75" height="8" rx="4" fill="black"/>
<rect x="100" y="166.538" width="61" height="8" rx="4" fill="black"/>
<rect x="82" y="99.5382" width="61" height="8" rx="4" fill="black"/>
<rect x="100" y="85.5382" width="61" height="8" rx="4" fill="black"/>
<rect x="59" y="179.538" width="61" height="8" rx="4" fill="black"/>
<rect x="106" y="251.538" width="46" height="8" rx="4" fill="black"/>
<rect x="80" y="251.538" width="23" height="8" rx="4" fill="black"/>
<rect x="104" y="342.538" width="22" height="8" rx="4" fill="black"/>
<rect x="370" y="187.538" width="19" height="8" rx="4" fill="black"/>
<rect x="31" y="153.538" width="37" height="8" rx="4" fill="black"/>
<rect x="77" y="166.538" width="19" height="8" rx="4" fill="black"/>
<rect x="59" y="99.5382" width="19" height="8" rx="4" fill="black"/>
<rect x="290" y="187.538" width="70" height="8" rx="4" fill="black"/>
<rect x="328" y="174.538" width="82" height="8" rx="4" fill="black"/>
<rect x="155" y="251.538" width="70" height="8" rx="4" fill="black"/>
<rect x="126" y="267.538" width="146" height="8" rx="4" fill="black"/>
<rect x="130" y="342.538" width="60" height="8" rx="4" fill="black"/>
<rect x="272" y="195.538" width="57" height="8" rx="4" fill="white"/>
<rect x="218" y="275.538" width="62" height="8" rx="4" fill="#BABABA"/>
<rect x="199" y="259.538" width="41" height="8" rx="4" fill="#BABABA"/>
<rect x="248" y="259.538" width="15" height="8" rx="4" fill="#BABABA"/>
</svg>
